<svg width="96" height="96" xmlns="http://www.w3.org/2000/svg" xmlns:xlink="http://www.w3.org/1999/xlink" xml:space="preserve" overflow="hidden"><g transform="translate(-285 -312)"><path d="M349 342C349 350.837 341.837 358 333 358 324.163 358 317 350.837 317 342 317 333.163 324.163 326 333 326 341.837 326 349 333.163 349 342Z" stroke="#FFFFFF" fill="#FFFFFF"/><path d="M365 394 365 378C365 375.6 363.8 373.2 361.8 371.6 357.4 368 351.8 365.6 346.2 364 342.2 362.8 337.8 362 333 362 328.6 362 324.2 362.8 319.8 364 314.2 365.6 308.6 368.4 304.2 371.6 302.2 373.2 301 375.6 301 378L301 394 365 394Z" stroke="#FFFFFF" fill="#FFFFFF"/></g></svg>