<svg width="96" height="96" xmlns="http://www.w3.org/2000/svg" xmlns:xlink="http://www.w3.org/1999/xlink" xml:space="preserve" overflow="hidden"><g transform="translate(-112 -184)"><path d="M178 264 142 264 142 200 178 200 178 264ZM156 192 164 192C165.1 192 166 192.9 166 194 166 195.1 165.1 196 164 196L156 196C154.9 196 154 195.1 154 194 154 192.9 154.9 192 156 192ZM182 188 138 188C136.9 188 136 188.9 136 190L136 274C136 275.1 136.9 276 138 276L182 276C183.1 276 184 275.1 184 274L184 190C184 188.9 183.1 188 182 188Z" stroke="#FFFFFF" fill="#FFFFFF"/></g></svg>