<svg width="96" height="96" xmlns="http://www.w3.org/2000/svg" xmlns:xlink="http://www.w3.org/1999/xlink" xml:space="preserve" overflow="hidden"><g transform="translate(-163 -333)"><path d="M171 350 171 412 251 412 251 350ZM240 356C241.105 356 242 356.895 242 358 242 359.105 241.105 360 240 360 238.895 360 238 359.105 238 358 238 356.895 238.895 356 240 356ZM233 356C234.105 356 235 356.895 235 358 235 359.105 234.105 360 233 360 231.895 360 231 359.105 231 358 231 356.895 231.895 356 233 356ZM226 356C227.105 356 228 356.895 228 358 228 359.105 227.105 360 226 360 224.895 360 224 359.105 224 358 224 356.895 224.895 356 226 356ZM245 406 177 406 177 366 245 366Z" stroke="#FFFFFF" fill="#FFFFFF"/><path d="M208.75 379.438C208.75 383.442 205.504 386.688 201.5 386.688 197.496 386.688 194.25 383.442 194.25 379.438 194.25 375.434 197.496 372.188 201.5 372.188 205.504 372.188 208.75 375.434 208.75 379.438Z" stroke="#FFFFFF" fill="#FFFFFF"/><path d="M216 403 216 395.75C215.976 394.615 215.444 393.55 214.55 392.85 212.448 391.24 210.044 390.069 207.481 389.406 205.542 388.812 203.527 388.507 201.5 388.5 199.475 388.535 197.464 388.839 195.519 389.406 192.985 390.146 190.594 391.31 188.45 392.85 187.556 393.55 187.024 394.615 187 395.75L187 403Z" stroke="#FFFFFF" fill="#FFFFFF"/><path d="M215.05 371.13 233.95 371.13C234.533 371.133 235.003 371.609 235 372.192 235 372.192 235 372.192 235 372.192L235 384.959C235.003 385.542 234.533 386.018 233.95 386.021 233.95 386.021 233.95 386.021 233.95 386.021L222.4 386.021 218.2 390.277 218.2 386.021 215.05 386.021C214.467 386.018 213.997 385.542 214 384.959 214 384.959 214 384.959 214 384.959L214 372.192C213.997 371.609 214.467 371.133 215.05 371.13 215.05 371.13 215.05 371.13 215.05 371.13Z" stroke="#FFFFFF" fill="#FFFFFF"/></g></svg>