<svg width="96" height="96" xmlns="http://www.w3.org/2000/svg" xmlns:xlink="http://www.w3.org/1999/xlink" xml:space="preserve" overflow="hidden"><g transform="translate(-419 -244)"><path d="M436.4 261C434.511 261.011 432.989 262.551 433 264.44 433 264.44 433 264.44 433 264.44L433 305.78 433 305.78C432.989 307.669 434.511 309.209 436.4 309.22 436.4 309.22 436.4 309.22 436.4 309.22L446.6 309.22 446.6 323 460.2 309.22 497.6 309.22C499.489 309.209 501.011 307.669 501 305.78 501 305.78 501 305.78 501 305.78L501 264.44 501 264.44C501.011 262.551 499.489 261.011 497.6 261 497.6 261 497.6 261 497.6 261ZM478 285C478 282.239 480.239 280 483 280 485.761 280 488 282.239 488 285 488 287.761 485.761 290 483 290 480.239 290 478 287.761 478 285ZM462 285C462 282.239 464.239 280 467 280 469.761 280 472 282.239 472 285 472 287.761 469.761 290 467 290 464.239 290 462 287.761 462 285ZM446 285C446 282.239 448.239 280 451 280 453.761 280 456 282.239 456 285 456 287.761 453.761 290 451 290 448.239 290 446 287.761 446 285Z"/></g></svg>