<svg width="96" height="96" xmlns="http://www.w3.org/2000/svg" xmlns:xlink="http://www.w3.org/1999/xlink" xml:space="preserve" overflow="hidden"><g transform="translate(-300 -375)"><path d="M347.986 384.995C327.011 384.995 310.007 401.999 310.007 422.974 310.007 443.949 327.011 460.953 347.986 460.953 368.961 460.953 385.965 443.949 385.965 422.974 385.974 402.008 368.986 385.004 348.02 384.995 348.009 384.995 347.997 384.995 347.986 384.995ZM347.986 442C347.986 442 329.516 427.876 329.516 416.469 329.516 408.863 341.141 400.715 347.986 414.296 354.831 400.715 366.456 408.863 366.456 416.469 366.456 427.876 347.986 442 347.986 442Z"/></g></svg>