<svg width="96" height="96" xmlns="http://www.w3.org/2000/svg" xmlns:xlink="http://www.w3.org/1999/xlink" xml:space="preserve" overflow="hidden"><g transform="translate(-228 -210)"><path d="M275.1 291.1 289.4 276.8 309.7 293.3C310.1 293.7 310.8 293.6 311.2 293.2 311.6 292.8 311.6 292.2 311.3 291.7L294.8 271.5 309.1 257.2C310.2 256.1 310.5 254.5 310 253 309.5 251.5 308.1 250.5 306.6 250.4 302.6 250 297.7 251.3 292.7 254L271.5 237C273.3 233.5 274.1 229.6 273.8 225.7 273.4 222.9 269.9 221.4 268 223.3L241.3 250C239.4 251.9 240.9 255.4 243.7 255.8 247.6 256.1 251.5 255.4 255 253.5L272 274.7C269.3 279.7 268.1 284.6 268.4 288.6 268.5 290.1 269.5 291.5 271 292 272.4 292.6 274 292.2 275.1 291.1Z"/></g></svg>